<mxfile host="app.diagrams.net" agent="Mozilla/5.0 (Windows NT 10.0; Win64; x64) AppleWebKit/537.36 (KHTML, like Gecko) Chrome/128.0.0.0 Safari/537.36" version="24.7.12">
  <diagram name="Page-1" id="0yyoLETPwCF62jefdrhz">
    <mxGraphModel dx="954" dy="592" grid="1" gridSize="10" guides="1" tooltips="1" connect="1" arrows="1" fold="1" page="1" pageScale="1" pageWidth="850" pageHeight="1100" math="0" shadow="0">
      <root>
        <mxCell id="0" />
        <mxCell id="1" parent="0" />
        <mxCell id="MPPBCogo5smDaw1nw7zm-12" value="&lt;div style=&quot;font-size: 16px;&quot;&gt;&lt;br&gt;&lt;/div&gt;" style="text;html=1;align=center;verticalAlign=middle;whiteSpace=wrap;rounded=0;" vertex="1" parent="1">
          <mxGeometry x="230" y="173" width="60" height="30" as="geometry" />
        </mxCell>
        <mxCell id="MPPBCogo5smDaw1nw7zm-16" value="&lt;div style=&quot;font-size: 14px; text-align: justify;&quot;&gt;&lt;br&gt;&lt;/div&gt;" style="text;html=1;align=center;verticalAlign=middle;whiteSpace=wrap;rounded=0;" vertex="1" parent="1">
          <mxGeometry x="550" y="260" width="220" height="30" as="geometry" />
        </mxCell>
        <mxCell id="MPPBCogo5smDaw1nw7zm-18" value="&lt;div style=&quot;font-size: 16px;&quot;&gt;&lt;br&gt;&lt;/div&gt;" style="text;html=1;align=center;verticalAlign=middle;whiteSpace=wrap;rounded=0;" vertex="1" parent="1">
          <mxGeometry x="630" y="173" width="60" height="30" as="geometry" />
        </mxCell>
        <mxCell id="MPPBCogo5smDaw1nw7zm-23" value="&lt;font style=&quot;font-size: 16px;&quot;&gt;&lt;b&gt;product&lt;/b&gt;&lt;/font&gt;" style="swimlane;fontStyle=0;childLayout=stackLayout;horizontal=1;startSize=30;horizontalStack=0;resizeParent=1;resizeParentMax=0;resizeLast=0;collapsible=1;marginBottom=0;whiteSpace=wrap;html=1;" vertex="1" parent="1">
          <mxGeometry x="110" y="160" width="210" height="180" as="geometry">
            <mxRectangle x="110" y="400" width="60" height="30" as="alternateBounds" />
          </mxGeometry>
        </mxCell>
        <mxCell id="MPPBCogo5smDaw1nw7zm-24" value="&lt;div style=&quot;font-size: 14px; text-align: justify;&quot;&gt;&lt;span style=&quot;background-color: initial;&quot;&gt;- product_id&lt;/span&gt;&lt;/div&gt;" style="text;strokeColor=none;fillColor=none;align=left;verticalAlign=middle;spacingLeft=4;spacingRight=4;overflow=hidden;points=[[0,0.5],[1,0.5]];portConstraint=eastwest;rotatable=0;whiteSpace=wrap;html=1;" vertex="1" parent="MPPBCogo5smDaw1nw7zm-23">
          <mxGeometry y="30" width="210" height="30" as="geometry" />
        </mxCell>
        <mxCell id="MPPBCogo5smDaw1nw7zm-25" value="&lt;div style=&quot;font-size: 14px; text-align: justify;&quot;&gt;&lt;span style=&quot;background-color: initial;&quot;&gt;- product_name&lt;/span&gt;&lt;/div&gt;" style="text;strokeColor=none;fillColor=none;align=left;verticalAlign=middle;spacingLeft=4;spacingRight=4;overflow=hidden;points=[[0,0.5],[1,0.5]];portConstraint=eastwest;rotatable=0;whiteSpace=wrap;html=1;" vertex="1" parent="MPPBCogo5smDaw1nw7zm-23">
          <mxGeometry y="60" width="210" height="30" as="geometry" />
        </mxCell>
        <mxCell id="MPPBCogo5smDaw1nw7zm-26" value="&lt;div style=&quot;font-size: 14px; text-align: justify;&quot;&gt;&lt;span style=&quot;background-color: initial;&quot;&gt;- product_size&lt;/span&gt;&lt;/div&gt;" style="text;strokeColor=none;fillColor=none;align=left;verticalAlign=middle;spacingLeft=4;spacingRight=4;overflow=hidden;points=[[0,0.5],[1,0.5]];portConstraint=eastwest;rotatable=0;whiteSpace=wrap;html=1;" vertex="1" parent="MPPBCogo5smDaw1nw7zm-23">
          <mxGeometry y="90" width="210" height="30" as="geometry" />
        </mxCell>
        <mxCell id="MPPBCogo5smDaw1nw7zm-31" value="&lt;div style=&quot;font-size: 14px; text-align: justify;&quot;&gt;&lt;span style=&quot;background-color: initial;&quot;&gt;- product_category_id&lt;/span&gt;&lt;/div&gt;" style="text;strokeColor=none;fillColor=none;align=left;verticalAlign=middle;spacingLeft=4;spacingRight=4;overflow=hidden;points=[[0,0.5],[1,0.5]];portConstraint=eastwest;rotatable=0;whiteSpace=wrap;html=1;" vertex="1" parent="MPPBCogo5smDaw1nw7zm-23">
          <mxGeometry y="120" width="210" height="30" as="geometry" />
        </mxCell>
        <mxCell id="MPPBCogo5smDaw1nw7zm-34" value="&lt;div style=&quot;font-size: 14px; text-align: justify;&quot;&gt;- product_qty_type&lt;br&gt;&lt;/div&gt;" style="text;strokeColor=none;fillColor=none;align=left;verticalAlign=middle;spacingLeft=4;spacingRight=4;overflow=hidden;points=[[0,0.5],[1,0.5]];portConstraint=eastwest;rotatable=0;whiteSpace=wrap;html=1;" vertex="1" parent="MPPBCogo5smDaw1nw7zm-23">
          <mxGeometry y="150" width="210" height="30" as="geometry" />
        </mxCell>
        <mxCell id="MPPBCogo5smDaw1nw7zm-27" value="&lt;div style=&quot;font-size: 16px;&quot;&gt;&lt;b&gt;customer_purchases&lt;/b&gt;&lt;/div&gt;" style="swimlane;fontStyle=0;childLayout=stackLayout;horizontal=1;startSize=30;horizontalStack=0;resizeParent=1;resizeParentMax=0;resizeLast=0;collapsible=1;marginBottom=0;whiteSpace=wrap;html=1;" vertex="1" parent="1">
          <mxGeometry x="560" y="220" width="200" height="240" as="geometry" />
        </mxCell>
        <mxCell id="MPPBCogo5smDaw1nw7zm-28" value="&lt;div style=&quot;font-size: 14px; text-align: justify;&quot;&gt;- product_id&lt;/div&gt;" style="text;strokeColor=none;fillColor=none;align=left;verticalAlign=middle;spacingLeft=4;spacingRight=4;overflow=hidden;points=[[0,0.5],[1,0.5]];portConstraint=eastwest;rotatable=0;whiteSpace=wrap;html=1;" vertex="1" parent="MPPBCogo5smDaw1nw7zm-27">
          <mxGeometry y="30" width="200" height="30" as="geometry" />
        </mxCell>
        <mxCell id="MPPBCogo5smDaw1nw7zm-29" value="&lt;div style=&quot;font-size: 14px; text-align: justify;&quot;&gt;&lt;span style=&quot;background-color: initial;&quot;&gt;- vendor_id&lt;/span&gt;&lt;/div&gt;" style="text;strokeColor=none;fillColor=none;align=left;verticalAlign=middle;spacingLeft=4;spacingRight=4;overflow=hidden;points=[[0,0.5],[1,0.5]];portConstraint=eastwest;rotatable=0;whiteSpace=wrap;html=1;" vertex="1" parent="MPPBCogo5smDaw1nw7zm-27">
          <mxGeometry y="60" width="200" height="30" as="geometry" />
        </mxCell>
        <mxCell id="MPPBCogo5smDaw1nw7zm-30" value="&lt;div style=&quot;font-size: 14px; text-align: justify;&quot;&gt;&lt;span style=&quot;background-color: initial;&quot;&gt;- market_date&lt;/span&gt;&lt;/div&gt;" style="text;strokeColor=none;fillColor=none;align=left;verticalAlign=middle;spacingLeft=4;spacingRight=4;overflow=hidden;points=[[0,0.5],[1,0.5]];portConstraint=eastwest;rotatable=0;whiteSpace=wrap;html=1;" vertex="1" parent="MPPBCogo5smDaw1nw7zm-27">
          <mxGeometry y="90" width="200" height="30" as="geometry" />
        </mxCell>
        <mxCell id="MPPBCogo5smDaw1nw7zm-35" value="&lt;div style=&quot;font-size: 14px; text-align: justify;&quot;&gt;&lt;span style=&quot;background-color: initial;&quot;&gt;- customer_id&lt;/span&gt;&lt;/div&gt;" style="text;strokeColor=none;fillColor=none;align=left;verticalAlign=middle;spacingLeft=4;spacingRight=4;overflow=hidden;points=[[0,0.5],[1,0.5]];portConstraint=eastwest;rotatable=0;whiteSpace=wrap;html=1;" vertex="1" parent="MPPBCogo5smDaw1nw7zm-27">
          <mxGeometry y="120" width="200" height="30" as="geometry" />
        </mxCell>
        <mxCell id="MPPBCogo5smDaw1nw7zm-36" value="&lt;div style=&quot;font-size: 14px; text-align: justify;&quot;&gt;&lt;span style=&quot;background-color: initial;&quot;&gt;- quantity&lt;/span&gt;&lt;/div&gt;" style="text;strokeColor=none;fillColor=none;align=left;verticalAlign=middle;spacingLeft=4;spacingRight=4;overflow=hidden;points=[[0,0.5],[1,0.5]];portConstraint=eastwest;rotatable=0;whiteSpace=wrap;html=1;" vertex="1" parent="MPPBCogo5smDaw1nw7zm-27">
          <mxGeometry y="150" width="200" height="30" as="geometry" />
        </mxCell>
        <mxCell id="MPPBCogo5smDaw1nw7zm-37" value="&lt;div style=&quot;font-size: 14px; text-align: justify;&quot;&gt;&lt;span style=&quot;background-color: initial;&quot;&gt;- cost_to_customer_per_qty&lt;/span&gt;&lt;/div&gt;" style="text;strokeColor=none;fillColor=none;align=left;verticalAlign=middle;spacingLeft=4;spacingRight=4;overflow=hidden;points=[[0,0.5],[1,0.5]];portConstraint=eastwest;rotatable=0;whiteSpace=wrap;html=1;" vertex="1" parent="MPPBCogo5smDaw1nw7zm-27">
          <mxGeometry y="180" width="200" height="30" as="geometry" />
        </mxCell>
        <mxCell id="MPPBCogo5smDaw1nw7zm-38" value="&lt;div style=&quot;font-size: 14px; text-align: justify;&quot;&gt;&lt;span style=&quot;background-color: initial;&quot;&gt;-&amp;nbsp;&lt;/span&gt;&lt;span style=&quot;background-color: initial;&quot;&gt;- transaction_time&lt;/span&gt;&lt;/div&gt;" style="text;strokeColor=none;fillColor=none;align=left;verticalAlign=middle;spacingLeft=4;spacingRight=4;overflow=hidden;points=[[0,0.5],[1,0.5]];portConstraint=eastwest;rotatable=0;whiteSpace=wrap;html=1;" vertex="1" parent="MPPBCogo5smDaw1nw7zm-27">
          <mxGeometry y="210" width="200" height="30" as="geometry" />
        </mxCell>
        <mxCell id="MPPBCogo5smDaw1nw7zm-42" style="edgeStyle=orthogonalEdgeStyle;rounded=0;orthogonalLoop=1;jettySize=auto;html=1;entryX=0;entryY=0.5;entryDx=0;entryDy=0;" edge="1" parent="1" source="MPPBCogo5smDaw1nw7zm-24" target="MPPBCogo5smDaw1nw7zm-28">
          <mxGeometry relative="1" as="geometry" />
        </mxCell>
        <mxCell id="MPPBCogo5smDaw1nw7zm-44" value="&lt;font style=&quot;font-size: 14px;&quot;&gt;&lt;b&gt;1&lt;/b&gt;&lt;/font&gt;" style="text;html=1;align=center;verticalAlign=middle;whiteSpace=wrap;rounded=0;" vertex="1" parent="1">
          <mxGeometry x="350" y="181" width="60" height="30" as="geometry" />
        </mxCell>
        <mxCell id="MPPBCogo5smDaw1nw7zm-47" value="&lt;p style=&quot;margin-left:42.55pt;text-align:justify&quot; class=&quot;MsoNormal&quot;&gt;&lt;span style=&quot;line-height: 107%;&quot;&gt;&lt;b style=&quot;&quot;&gt;&lt;font style=&quot;font-size: 19px;&quot;&gt;∞&lt;/font&gt;&lt;/b&gt;&lt;/span&gt;&lt;span style=&quot;font-size:14.0pt;&lt;br/&gt;line-height:107%&quot;&gt;&lt;/span&gt;&lt;/p&gt;" style="text;html=1;align=center;verticalAlign=middle;whiteSpace=wrap;rounded=0;" vertex="1" parent="1">
          <mxGeometry x="442" y="242" width="60" height="30" as="geometry" />
        </mxCell>
      </root>
    </mxGraphModel>
  </diagram>
</mxfile>
